<svg width="25" height="25" viewBox="0 0 25 25" fill="none" xmlns="http://www.w3.org/2000/svg">
<path d="M22.7968 13.1463L13.7968 4.14628C13.4368 3.78628 12.9368 3.56628 12.3868 3.56628H5.38678C4.28678 3.56628 3.38678 4.46628 3.38678 5.56628V12.5663C3.38678 13.1163 3.60678 13.6163 3.97678 13.9863L12.9768 22.9863C13.3368 23.3463 13.8368 23.5663 14.3868 23.5663C14.9368 23.5663 15.4368 23.3463 15.7968 22.9763L22.7968 15.9763C23.1668 15.6163 23.3868 15.1163 23.3868 14.5663C23.3868 14.0163 23.1568 13.5063 22.7968 13.1463ZM6.88678 8.56628C6.05678 8.56628 5.38678 7.89628 5.38678 7.06628C5.38678 6.23628 6.05678 5.56628 6.88678 5.56628C7.71678 5.56628 8.38678 6.23628 8.38678 7.06628C8.38678 7.89628 7.71678 8.56628 6.88678 8.56628Z" fill="#405E9A"/>
<ellipse cx="7.18213" cy="18.5968" rx="6.20465" ry="6.28821" fill="white"/>
<path d="M12.1459 19.3155H7.89124V23.6274H6.47303V19.3155H2.21841V17.8782H6.47303V13.5663H7.89124V17.8782H12.1459V19.3155Z" fill="#405E9A"/>
</svg>
