<svg width="24" height="24" viewBox="0 0 24 24" fill="none" xmlns="http://www.w3.org/2000/svg">
<path d="M15.6956 10.2609C17.4278 10.2609 18.8156 8.86261 18.8156 7.13043C18.8156 5.39826 17.4278 4 15.6956 4C13.9635 4 12.5652 5.39826 12.5652 7.13043C12.5652 8.86261 13.9635 10.2609 15.6956 10.2609ZM7.3478 10.2609C9.07998 10.2609 10.4678 8.86261 10.4678 7.13043C10.4678 5.39826 9.07998 4 7.3478 4C5.61563 4 4.21737 5.39826 4.21737 7.13043C4.21737 8.86261 5.61563 10.2609 7.3478 10.2609ZM7.3478 12.3478C4.9165 12.3478 0.043457 13.5687 0.043457 16V18.6087H14.6522V16C14.6522 13.5687 9.77911 12.3478 7.3478 12.3478ZM15.6956 12.3478C15.393 12.3478 15.0487 12.3687 14.6835 12.4C15.8939 13.2765 16.7391 14.4557 16.7391 16V18.6087H23V16C23 13.5687 18.1269 12.3478 15.6956 12.3478Z" fill="#405E9A"/>
<ellipse cx="6.205" cy="17.7086" rx="6.205" ry="6.28856" fill="white"/>
<path d="M11.169 18.4295H6.91411V22.7417H5.49582V18.4295H1.24097V16.9921H5.49582V12.68H6.91411V16.9921H11.169V18.4295Z" fill="#405E9A"/>
</svg>
