<svg width="24" height="24" viewBox="0 0 24 24" fill="none" xmlns="http://www.w3.org/2000/svg">
<path d="M17 10.5V7C17 6.45 16.55 6 16 6H4C3.45 6 3 6.45 3 7V17C3 17.55 3.45 18 4 18H16C16.55 18 17 17.55 17 17V13.5L21 17.5V6.5L17 10.5Z" fill="#405E9A"/>
<ellipse cx="6.20465" cy="17.7118" rx="6.20465" ry="6.28821" fill="white"/>
<path d="M7.87492 16.5C8.88783 16.5 9.70825 15.6796 9.70825 14.6667C9.70825 13.6538 8.88783 12.8333 7.87492 12.8333C6.862 12.8333 6.04158 13.6538 6.04158 14.6667C6.04158 15.6796 6.862 16.5 7.87492 16.5ZM7.87492 13.75C8.37908 13.75 8.79158 14.1625 8.79158 14.6667C8.79158 15.1708 8.37908 15.5833 7.87492 15.5833C7.37075 15.5833 6.95825 15.1708 6.95825 14.6667C6.95825 14.1625 7.37075 13.75 7.87492 13.75ZM7.87492 17.4167C6.65117 17.4167 4.20825 18.0308 4.20825 19.25V20.1667H11.5416V19.25C11.5416 18.0308 9.09867 17.4167 7.87492 17.4167ZM5.12492 19.25C5.22575 18.92 6.642 18.3333 7.87492 18.3333C9.11242 18.3333 10.5333 18.9246 10.6249 19.25H5.12492ZM3.74992 17.875V16.5H5.12492V15.5833H3.74992V14.2083H2.83325V15.5833H1.45825V16.5H2.83325V17.875H3.74992Z" fill="#405E9A"/>
</svg>
