<svg width="25" height="25" viewBox="0 0 25 25" fill="none" xmlns="http://www.w3.org/2000/svg">
<g clip-path="url(#clip0_10:933)">
<path d="M17.3152 11.0392V7.53918C17.3152 6.98918 16.8652 6.53918 16.3152 6.53918H4.31519C3.76519 6.53918 3.31519 6.98918 3.31519 7.53918V17.5392C3.31519 18.0892 3.76519 18.5392 4.31519 18.5392H16.3152C16.8652 18.5392 17.3152 18.0892 17.3152 17.5392V14.0392L21.3152 18.0392V7.03918L17.3152 11.0392Z" fill="#405E9A"/>
<ellipse cx="6.51984" cy="18.251" rx="6.20465" ry="6.28821" fill="white"/>
<path d="M9.63089 21.3621H3.40866V15.1399H6.51978V14.251H3.40866C2.91533 14.251 2.51978 14.651 2.51978 15.1399V21.3621C2.51978 21.851 2.91533 22.251 3.40866 22.251H9.63089C10.1198 22.251 10.5198 21.851 10.5198 21.3621V18.251H9.63089V21.3621ZM7.40866 14.251V15.1399H9.00422L4.63533 19.5088L5.262 20.1354L9.63089 15.7665V17.3621H10.5198V14.251H7.40866Z" fill="#405E9A"/>
</g>
<defs>
<clipPath id="clip0_10:933">
<rect width="24" height="24" fill="white" transform="translate(0.315186 0.539185)"/>
</clipPath>
</defs>
</svg>
