<svg width="24" height="24" viewBox="0 0 24 24" fill="none" xmlns="http://www.w3.org/2000/svg">
<path d="M17 10.5V7C17 6.45 16.55 6 16 6H4C3.45 6 3 6.45 3 7V17C3 17.55 3.45 18 4 18H16C16.55 18 17 17.55 17 17V13.5L21 17.5V6.5L17 10.5Z" fill="#405E9A"/>
<ellipse cx="6.20465" cy="17.7118" rx="6.20465" ry="6.28821" fill="white"/>
<path d="M8.75 13.5H6.75V14.5H8.75C9.575 14.5 10.25 15.175 10.25 16C10.25 16.825 9.575 17.5 8.75 17.5H6.75V18.5H8.75C10.13 18.5 11.25 17.38 11.25 16C11.25 14.62 10.13 13.5 8.75 13.5ZM5.75 17.5H3.75C2.925 17.5 2.25 16.825 2.25 16C2.25 15.175 2.925 14.5 3.75 14.5H5.75V13.5H3.75C2.37 13.5 1.25 14.62 1.25 16C1.25 17.38 2.37 18.5 3.75 18.5H5.75V17.5ZM4.25 15.5H8.25V16.5H4.25V15.5Z" fill="#405E9A"/>
</svg>
